<svg width="289" height="177" viewBox="0 0 289 177" fill="none" xmlns="http://www.w3.org/2000/svg">
<g clip-path="url(#clip0_1_2)">
<rect width="289" height="177" fill="white"></rect>
<mask id="path-1-outside-1_1_2" maskUnits="userSpaceOnUse" x="19" y="74" width="227" height="39" fill="black">
<rect fill="white" x="19" y="74" width="227" height="39"></rect>
<path d="M41.3182 84.8182C41.1136 83.0909 40.2841 81.75 38.8295 80.7955C37.375 79.8409 35.5909 79.3636 33.4773 79.3636C31.9318 79.3636 30.5795 79.6136 29.4205 80.1136C28.2727 80.6136 27.375 81.3011 26.7273 82.1761C26.0909 83.0511 25.7727 84.0455 25.7727 85.1591C25.7727 86.0909 25.9943 86.892 26.4375 87.5625C26.892 88.2216 27.4716 88.7727 28.1761 89.2159C28.8807 89.6477 29.6193 90.0057 30.392 90.2898C31.1648 90.5625 31.875 90.7841 32.5227 90.9545L36.0682 91.9091C36.9773 92.1477 37.9886 92.4773 39.1023 92.8977C40.2273 93.3182 41.3011 93.892 42.3239 94.6193C43.358 95.3352 44.2102 96.2557 44.8807 97.3807C45.5511 98.5057 45.8864 99.8864 45.8864 101.523C45.8864 103.409 45.392 105.114 44.4034 106.636C43.4261 108.159 41.9943 109.369 40.108 110.267C38.233 111.165 35.9545 111.614 33.2727 111.614C30.7727 111.614 28.608 111.21 26.7784 110.403C24.9602 109.597 23.5284 108.472 22.483 107.028C21.4489 105.585 20.8636 103.909 20.7273 102H25.0909C25.2045 103.318 25.6477 104.409 26.4205 105.273C27.2045 106.125 28.1932 106.761 29.3864 107.182C30.5909 107.591 31.8864 107.795 33.2727 107.795C34.8864 107.795 36.3352 107.534 37.6193 107.011C38.9034 106.477 39.9205 105.739 40.6705 104.795C41.4205 103.841 41.7955 102.727 41.7955 101.455C41.7955 100.295 41.4716 99.3523 40.8239 98.625C40.1761 97.8977 39.3239 97.3068 38.267 96.8523C37.2102 96.3977 36.0682 96 34.8409 95.6591L30.5455 94.4318C27.8182 93.6477 25.6591 92.5284 24.0682 91.0739C22.4773 89.6193 21.6818 87.7159 21.6818 85.3636C21.6818 83.4091 22.2102 81.7045 23.267 80.25C24.3352 78.7841 25.767 77.6477 27.5625 76.8409C29.3693 76.0227 31.3864 75.6136 33.6136 75.6136C35.8636 75.6136 37.8636 76.017 39.6136 76.8239C41.3636 77.6193 42.75 78.7102 43.7727 80.0966C44.8068 81.483 45.3523 83.0568 45.4091 84.8182H41.3182ZM49.7884 111H48.8651L51.5355 103.727H52.4446L55.1151 111H54.1918L52.0185 104.878H51.9616L49.7884 111ZM50.1293 108.159H53.8509V108.94H50.1293V108.159ZM59.0604 103.727H60.1115L62.5831 109.764H62.6683L65.1399 103.727H66.1911V111H65.3672V105.474H65.2962L63.0234 111H62.228L59.9553 105.474H59.8842V111H59.0604V103.727ZM75.5478 111H71.1159L83.9341 76.0909H88.2978L101.116 111H96.6841L86.2523 81.6136H85.9796L75.5478 111ZM77.1841 97.3636H95.0478V101.114H77.1841V97.3636ZM108.974 103.727V111H108.122L104.159 105.29H104.088V111H103.207V103.727H104.059L108.036 109.452H108.107V103.727H108.974ZM114.429 103.727V111H113.549V103.727H114.429ZM119.008 103.727H120.059L122.53 109.764H122.616L125.087 103.727H126.138V111H125.314V105.474H125.243L122.971 111H122.175L119.903 105.474H119.831V111H119.008V103.727ZM131.015 111H130.092L132.762 103.727H133.671L136.342 111H135.418L133.245 104.878H133.188L131.015 111ZM131.356 108.159H135.077V108.94H131.356V108.159ZM139.889 104.509V103.727H145.344V104.509H143.057V111H142.176V104.509H139.889ZM150.396 103.727V111H149.515V103.727H150.396ZM161.111 107.364C161.111 108.131 160.972 108.794 160.695 109.352C160.418 109.911 160.038 110.342 159.555 110.645C159.072 110.948 158.521 111.099 157.901 111.099C157.28 111.099 156.729 110.948 156.246 110.645C155.763 110.342 155.383 109.911 155.106 109.352C154.829 108.794 154.69 108.131 154.69 107.364C154.69 106.597 154.829 105.934 155.106 105.375C155.383 104.816 155.763 104.385 156.246 104.082C156.729 103.779 157.28 103.628 157.901 103.628C158.521 103.628 159.072 103.779 159.555 104.082C160.038 104.385 160.418 104.816 160.695 105.375C160.972 105.934 161.111 106.597 161.111 107.364ZM160.259 107.364C160.259 106.734 160.153 106.202 159.942 105.769C159.734 105.336 159.451 105.008 159.094 104.786C158.739 104.563 158.341 104.452 157.901 104.452C157.46 104.452 157.061 104.563 156.704 104.786C156.349 105.008 156.066 105.336 155.855 105.769C155.647 106.202 155.543 106.734 155.543 107.364C155.543 107.993 155.647 108.525 155.855 108.958C156.066 109.391 156.349 109.719 156.704 109.942C157.061 110.164 157.46 110.276 157.901 110.276C158.341 110.276 158.739 110.164 159.094 109.942C159.451 109.719 159.734 109.391 159.942 108.958C160.153 108.525 160.259 107.993 160.259 107.364ZM171.171 103.727V111H170.319L166.356 105.29H166.285V111H165.404V103.727H166.256L170.234 109.452H170.305V103.727H171.171ZM195.371 84.8182C195.166 83.0909 194.337 81.75 192.882 80.7955C191.428 79.8409 189.644 79.3636 187.53 79.3636C185.985 79.3636 184.632 79.6136 183.473 80.1136C182.325 80.6136 181.428 81.3011 180.78 82.1761C180.144 83.0511 179.825 84.0455 179.825 85.1591C179.825 86.0909 180.047 86.892 180.49 87.5625C180.945 88.2216 181.524 88.7727 182.229 89.2159C182.933 89.6477 183.672 90.0057 184.445 90.2898C185.218 90.5625 185.928 90.7841 186.575 90.9545L190.121 91.9091C191.03 92.1477 192.041 92.4773 193.155 92.8977C194.28 93.3182 195.354 93.892 196.377 94.6193C197.411 95.3352 198.263 96.2557 198.933 97.3807C199.604 98.5057 199.939 99.8864 199.939 101.523C199.939 103.409 199.445 105.114 198.456 106.636C197.479 108.159 196.047 109.369 194.161 110.267C192.286 111.165 190.007 111.614 187.325 111.614C184.825 111.614 182.661 111.21 180.831 110.403C179.013 109.597 177.581 108.472 176.536 107.028C175.502 105.585 174.916 103.909 174.78 102H179.144C179.257 103.318 179.7 104.409 180.473 105.273C181.257 106.125 182.246 106.761 183.439 107.182C184.644 107.591 185.939 107.795 187.325 107.795C188.939 107.795 190.388 107.534 191.672 107.011C192.956 106.477 193.973 105.739 194.723 104.795C195.473 103.841 195.848 102.727 195.848 101.455C195.848 100.295 195.524 99.3523 194.877 98.625C194.229 97.8977 193.377 97.3068 192.32 96.8523C191.263 96.3977 190.121 96 188.894 95.6591L184.598 94.4318C181.871 93.6477 179.712 92.5284 178.121 91.0739C176.53 89.6193 175.735 87.7159 175.735 85.3636C175.735 83.4091 176.263 81.7045 177.32 80.25C178.388 78.7841 179.82 77.6477 181.615 76.8409C183.422 76.0227 185.439 75.6136 187.666 75.6136C189.916 75.6136 191.916 76.017 193.666 76.8239C195.416 77.6193 196.803 78.7102 197.825 80.0966C198.86 81.483 199.405 83.0568 199.462 84.8182H195.371ZM203.145 104.509V103.727H208.6V104.509H206.313V111H205.432V104.509H203.145ZM217.544 103.727H218.425V108.543C218.425 109.04 218.308 109.484 218.073 109.874C217.841 110.263 217.513 110.569 217.089 110.794C216.666 111.017 216.169 111.128 215.598 111.128C215.027 111.128 214.53 111.017 214.107 110.794C213.683 110.569 213.354 110.263 213.119 109.874C212.887 109.484 212.771 109.04 212.771 108.543V103.727H213.652V108.472C213.652 108.827 213.73 109.143 213.886 109.42C214.043 109.694 214.265 109.911 214.554 110.07C214.845 110.226 215.193 110.304 215.598 110.304C216.003 110.304 216.351 110.226 216.642 110.07C216.933 109.911 217.156 109.694 217.31 109.42C217.466 109.143 217.544 108.827 217.544 108.472V103.727ZM225.24 111H222.996V103.727H225.34C226.045 103.727 226.649 103.873 227.151 104.164C227.653 104.453 228.037 104.868 228.305 105.411C228.572 105.95 228.706 106.597 228.706 107.349C228.706 108.107 228.571 108.759 228.301 109.306C228.031 109.851 227.638 110.27 227.122 110.563C226.606 110.854 225.979 111 225.24 111ZM223.877 110.219H225.183C225.785 110.219 226.283 110.103 226.678 109.871C227.074 109.639 227.369 109.308 227.563 108.88C227.757 108.451 227.854 107.941 227.854 107.349C227.854 106.762 227.758 106.257 227.566 105.833C227.374 105.407 227.088 105.08 226.707 104.853C226.326 104.623 225.851 104.509 225.283 104.509H223.877V110.219ZM233.877 103.727V111H232.996V103.727H233.877ZM244.591 107.364C244.591 108.131 244.453 108.794 244.176 109.352C243.899 109.911 243.519 110.342 243.036 110.645C242.553 110.948 242.001 111.099 241.381 111.099C240.761 111.099 240.209 110.948 239.726 110.645C239.243 110.342 238.863 109.911 238.586 109.352C238.309 108.794 238.171 108.131 238.171 107.364C238.171 106.597 238.309 105.934 238.586 105.375C238.863 104.816 239.243 104.385 239.726 104.082C240.209 103.779 240.761 103.628 241.381 103.628C242.001 103.628 242.553 103.779 243.036 104.082C243.519 104.385 243.899 104.816 244.176 105.375C244.453 105.934 244.591 106.597 244.591 107.364ZM243.739 107.364C243.739 106.734 243.634 106.202 243.423 105.769C243.215 105.336 242.932 105.008 242.574 104.786C242.219 104.563 241.821 104.452 241.381 104.452C240.941 104.452 240.542 104.563 240.184 104.786C239.829 105.008 239.546 105.336 239.336 105.769C239.127 106.202 239.023 106.734 239.023 107.364C239.023 107.993 239.127 108.525 239.336 108.958C239.546 109.391 239.829 109.719 240.184 109.942C240.542 110.164 240.941 110.276 241.381 110.276C241.821 110.276 242.219 110.164 242.574 109.942C242.932 109.719 243.215 109.391 243.423 108.958C243.634 108.525 243.739 107.993 243.739 107.364Z"></path>
</mask>
<path d="M41.3182 84.8182C41.1136 83.0909 40.2841 81.75 38.8295 80.7955C37.375 79.8409 35.5909 79.3636 33.4773 79.3636C31.9318 79.3636 30.5795 79.6136 29.4205 80.1136C28.2727 80.6136 27.375 81.3011 26.7273 82.1761C26.0909 83.0511 25.7727 84.0455 25.7727 85.1591C25.7727 86.0909 25.9943 86.892 26.4375 87.5625C26.892 88.2216 27.4716 88.7727 28.1761 89.2159C28.8807 89.6477 29.6193 90.0057 30.392 90.2898C31.1648 90.5625 31.875 90.7841 32.5227 90.9545L36.0682 91.9091C36.9773 92.1477 37.9886 92.4773 39.1023 92.8977C40.2273 93.3182 41.3011 93.892 42.3239 94.6193C43.358 95.3352 44.2102 96.2557 44.8807 97.3807C45.5511 98.5057 45.8864 99.8864 45.8864 101.523C45.8864 103.409 45.392 105.114 44.4034 106.636C43.4261 108.159 41.9943 109.369 40.108 110.267C38.233 111.165 35.9545 111.614 33.2727 111.614C30.7727 111.614 28.608 111.21 26.7784 110.403C24.9602 109.597 23.5284 108.472 22.483 107.028C21.4489 105.585 20.8636 103.909 20.7273 102H25.0909C25.2045 103.318 25.6477 104.409 26.4205 105.273C27.2045 106.125 28.1932 106.761 29.3864 107.182C30.5909 107.591 31.8864 107.795 33.2727 107.795C34.8864 107.795 36.3352 107.534 37.6193 107.011C38.9034 106.477 39.9205 105.739 40.6705 104.795C41.4205 103.841 41.7955 102.727 41.7955 101.455C41.7955 100.295 41.4716 99.3523 40.8239 98.625C40.1761 97.8977 39.3239 97.3068 38.267 96.8523C37.2102 96.3977 36.0682 96 34.8409 95.6591L30.5455 94.4318C27.8182 93.6477 25.6591 92.5284 24.0682 91.0739C22.4773 89.6193 21.6818 87.7159 21.6818 85.3636C21.6818 83.4091 22.2102 81.7045 23.267 80.25C24.3352 78.7841 25.767 77.6477 27.5625 76.8409C29.3693 76.0227 31.3864 75.6136 33.6136 75.6136C35.8636 75.6136 37.8636 76.017 39.6136 76.8239C41.3636 77.6193 42.75 78.7102 43.7727 80.0966C44.8068 81.483 45.3523 83.0568 45.4091 84.8182H41.3182ZM49.7884 111H48.8651L51.5355 103.727H52.4446L55.1151 111H54.1918L52.0185 104.878H51.9616L49.7884 111ZM50.1293 108.159H53.8509V108.94H50.1293V108.159ZM59.0604 103.727H60.1115L62.5831 109.764H62.6683L65.1399 103.727H66.1911V111H65.3672V105.474H65.2962L63.0234 111H62.228L59.9553 105.474H59.8842V111H59.0604V103.727ZM75.5478 111H71.1159L83.9341 76.0909H88.2978L101.116 111H96.6841L86.2523 81.6136H85.9796L75.5478 111ZM77.1841 97.3636H95.0478V101.114H77.1841V97.3636ZM108.974 103.727V111H108.122L104.159 105.29H104.088V111H103.207V103.727H104.059L108.036 109.452H108.107V103.727H108.974ZM114.429 103.727V111H113.549V103.727H114.429ZM119.008 103.727H120.059L122.53 109.764H122.616L125.087 103.727H126.138V111H125.314V105.474H125.243L122.971 111H122.175L119.903 105.474H119.831V111H119.008V103.727ZM131.015 111H130.092L132.762 103.727H133.671L136.342 111H135.418L133.245 104.878H133.188L131.015 111ZM131.356 108.159H135.077V108.94H131.356V108.159ZM139.889 104.509V103.727H145.344V104.509H143.057V111H142.176V104.509H139.889ZM150.396 103.727V111H149.515V103.727H150.396ZM161.111 107.364C161.111 108.131 160.972 108.794 160.695 109.352C160.418 109.911 160.038 110.342 159.555 110.645C159.072 110.948 158.521 111.099 157.901 111.099C157.28 111.099 156.729 110.948 156.246 110.645C155.763 110.342 155.383 109.911 155.106 109.352C154.829 108.794 154.69 108.131 154.69 107.364C154.69 106.597 154.829 105.934 155.106 105.375C155.383 104.816 155.763 104.385 156.246 104.082C156.729 103.779 157.28 103.628 157.901 103.628C158.521 103.628 159.072 103.779 159.555 104.082C160.038 104.385 160.418 104.816 160.695 105.375C160.972 105.934 161.111 106.597 161.111 107.364ZM160.259 107.364C160.259 106.734 160.153 106.202 159.942 105.769C159.734 105.336 159.451 105.008 159.094 104.786C158.739 104.563 158.341 104.452 157.901 104.452C157.46 104.452 157.061 104.563 156.704 104.786C156.349 105.008 156.066 105.336 155.855 105.769C155.647 106.202 155.543 106.734 155.543 107.364C155.543 107.993 155.647 108.525 155.855 108.958C156.066 109.391 156.349 109.719 156.704 109.942C157.061 110.164 157.46 110.276 157.901 110.276C158.341 110.276 158.739 110.164 159.094 109.942C159.451 109.719 159.734 109.391 159.942 108.958C160.153 108.525 160.259 107.993 160.259 107.364ZM171.171 103.727V111H170.319L166.356 105.29H166.285V111H165.404V103.727H166.256L170.234 109.452H170.305V103.727H171.171ZM195.371 84.8182C195.166 83.0909 194.337 81.75 192.882 80.7955C191.428 79.8409 189.644 79.3636 187.53 79.3636C185.985 79.3636 184.632 79.6136 183.473 80.1136C182.325 80.6136 181.428 81.3011 180.78 82.1761C180.144 83.0511 179.825 84.0455 179.825 85.1591C179.825 86.0909 180.047 86.892 180.49 87.5625C180.945 88.2216 181.524 88.7727 182.229 89.2159C182.933 89.6477 183.672 90.0057 184.445 90.2898C185.218 90.5625 185.928 90.7841 186.575 90.9545L190.121 91.9091C191.03 92.1477 192.041 92.4773 193.155 92.8977C194.28 93.3182 195.354 93.892 196.377 94.6193C197.411 95.3352 198.263 96.2557 198.933 97.3807C199.604 98.5057 199.939 99.8864 199.939 101.523C199.939 103.409 199.445 105.114 198.456 106.636C197.479 108.159 196.047 109.369 194.161 110.267C192.286 111.165 190.007 111.614 187.325 111.614C184.825 111.614 182.661 111.21 180.831 110.403C179.013 109.597 177.581 108.472 176.536 107.028C175.502 105.585 174.916 103.909 174.78 102H179.144C179.257 103.318 179.7 104.409 180.473 105.273C181.257 106.125 182.246 106.761 183.439 107.182C184.644 107.591 185.939 107.795 187.325 107.795C188.939 107.795 190.388 107.534 191.672 107.011C192.956 106.477 193.973 105.739 194.723 104.795C195.473 103.841 195.848 102.727 195.848 101.455C195.848 100.295 195.524 99.3523 194.877 98.625C194.229 97.8977 193.377 97.3068 192.32 96.8523C191.263 96.3977 190.121 96 188.894 95.6591L184.598 94.4318C181.871 93.6477 179.712 92.5284 178.121 91.0739C176.53 89.6193 175.735 87.7159 175.735 85.3636C175.735 83.4091 176.263 81.7045 177.32 80.25C178.388 78.7841 179.82 77.6477 181.615 76.8409C183.422 76.0227 185.439 75.6136 187.666 75.6136C189.916 75.6136 191.916 76.017 193.666 76.8239C195.416 77.6193 196.803 78.7102 197.825 80.0966C198.86 81.483 199.405 83.0568 199.462 84.8182H195.371ZM203.145 104.509V103.727H208.6V104.509H206.313V111H205.432V104.509H203.145ZM217.544 103.727H218.425V108.543C218.425 109.04 218.308 109.484 218.073 109.874C217.841 110.263 217.513 110.569 217.089 110.794C216.666 111.017 216.169 111.128 215.598 111.128C215.027 111.128 214.53 111.017 214.107 110.794C213.683 110.569 213.354 110.263 213.119 109.874C212.887 109.484 212.771 109.04 212.771 108.543V103.727H213.652V108.472C213.652 108.827 213.73 109.143 213.886 109.42C214.043 109.694 214.265 109.911 214.554 110.07C214.845 110.226 215.193 110.304 215.598 110.304C216.003 110.304 216.351 110.226 216.642 110.07C216.933 109.911 217.156 109.694 217.31 109.42C217.466 109.143 217.544 108.827 217.544 108.472V103.727ZM225.24 111H222.996V103.727H225.34C226.045 103.727 226.649 103.873 227.151 104.164C227.653 104.453 228.037 104.868 228.305 105.411C228.572 105.95 228.706 106.597 228.706 107.349C228.706 108.107 228.571 108.759 228.301 109.306C228.031 109.851 227.638 110.27 227.122 110.563C226.606 110.854 225.979 111 225.24 111ZM223.877 110.219H225.183C225.785 110.219 226.283 110.103 226.678 109.871C227.074 109.639 227.369 109.308 227.563 108.88C227.757 108.451 227.854 107.941 227.854 107.349C227.854 106.762 227.758 106.257 227.566 105.833C227.374 105.407 227.088 105.08 226.707 104.853C226.326 104.623 225.851 104.509 225.283 104.509H223.877V110.219ZM233.877 103.727V111H232.996V103.727H233.877ZM244.591 107.364C244.591 108.131 244.453 108.794 244.176 109.352C243.899 109.911 243.519 110.342 243.036 110.645C242.553 110.948 242.001 111.099 241.381 111.099C240.761 111.099 240.209 110.948 239.726 110.645C239.243 110.342 238.863 109.911 238.586 109.352C238.309 108.794 238.171 108.131 238.171 107.364C238.171 106.597 238.309 105.934 238.586 105.375C238.863 104.816 239.243 104.385 239.726 104.082C240.209 103.779 240.761 103.628 241.381 103.628C242.001 103.628 242.553 103.779 243.036 104.082C243.519 104.385 243.899 104.816 244.176 105.375C244.453 105.934 244.591 106.597 244.591 107.364ZM243.739 107.364C243.739 106.734 243.634 106.202 243.423 105.769C243.215 105.336 242.932 105.008 242.574 104.786C242.219 104.563 241.821 104.452 241.381 104.452C240.941 104.452 240.542 104.563 240.184 104.786C239.829 105.008 239.546 105.336 239.336 105.769C239.127 106.202 239.023 106.734 239.023 107.364C239.023 107.993 239.127 108.525 239.336 108.958C239.546 109.391 239.829 109.719 240.184 109.942C240.542 110.164 240.941 110.276 241.381 110.276C241.821 110.276 242.219 110.164 242.574 109.942C242.932 109.719 243.215 109.391 243.423 108.958C243.634 108.525 243.739 107.993 243.739 107.364Z" fill="black"></path>
<path d="M41.3182 84.8182L40.3251 84.9358L40.4296 85.8182H41.3182V84.8182ZM38.8295 80.7955L38.2809 81.6315V81.6315L38.8295 80.7955ZM29.4205 80.1136L29.0244 79.1954L29.0211 79.1969L29.4205 80.1136ZM26.7273 82.1761L25.9235 81.5811L25.9185 81.588L26.7273 82.1761ZM26.4375 87.5625L25.6033 88.1139L25.6087 88.1221L25.6143 88.1302L26.4375 87.5625ZM28.1761 89.2159L27.6436 90.0624L27.6536 90.0685L28.1761 89.2159ZM30.392 90.2898L30.047 91.2284L30.0592 91.2328L30.392 90.2898ZM32.5227 90.9545L32.7827 89.9889L32.7772 89.9875L32.5227 90.9545ZM36.0682 91.9091L35.8082 92.8747L35.8143 92.8763L36.0682 91.9091ZM39.1023 92.8977L38.7491 93.8333L38.7522 93.8344L39.1023 92.8977ZM42.3239 94.6193L41.7443 95.4343L41.7547 95.4415L42.3239 94.6193ZM44.8807 97.3807L45.7397 96.8687V96.8687L44.8807 97.3807ZM44.4034 106.636L43.5647 106.092L43.5618 106.096L44.4034 106.636ZM40.108 110.267L39.6782 109.364L39.6761 109.365L40.108 110.267ZM26.7784 110.403L26.3728 111.317L26.3749 111.318L26.7784 110.403ZM22.483 107.028L21.6701 107.611L21.6731 107.615L22.483 107.028ZM20.7273 102V101H19.6533L19.7298 102.071L20.7273 102ZM25.0909 102L26.0872 101.914L26.0084 101H25.0909V102ZM26.4205 105.273L25.6751 105.94L25.6845 105.95L26.4205 105.273ZM29.3864 107.182L29.054 108.125L29.0648 108.129L29.3864 107.182ZM37.6193 107.011L37.9964 107.938L38.0034 107.935L37.6193 107.011ZM40.6705 104.795L41.4532 105.418L41.4568 105.413L40.6705 104.795ZM40.8239 98.625L41.5706 97.9599H41.5706L40.8239 98.625ZM38.267 96.8523L37.8719 97.7709V97.7709L38.267 96.8523ZM34.8409 95.6591L34.5662 96.6206L34.5733 96.6226L34.8409 95.6591ZM30.5455 94.4318L30.2691 95.3929L30.2707 95.3933L30.5455 94.4318ZM24.0682 91.0739L23.3934 91.8119V91.8119L24.0682 91.0739ZM23.267 80.25L22.4589 79.6611L22.458 79.6622L23.267 80.25ZM27.5625 76.8409L27.9724 77.753L27.975 77.7519L27.5625 76.8409ZM39.6136 76.8239L39.1949 77.732L39.1998 77.7342L39.6136 76.8239ZM43.7727 80.0966L42.968 80.6902L42.9712 80.6945L43.7727 80.0966ZM45.4091 84.8182V85.8182H46.4419L46.4086 84.7859L45.4091 84.8182ZM42.3112 84.7006C42.0719 82.6799 41.0797 81.076 39.3782 79.9594L38.2809 81.6315C39.4885 82.424 40.1553 83.502 40.3251 84.9358L42.3112 84.7006ZM39.3782 79.9594C37.7286 78.8768 35.7436 78.3636 33.4773 78.3636V80.3636C35.4382 80.3636 37.0214 80.805 38.2809 81.6315L39.3782 79.9594ZM33.4773 78.3636C31.8254 78.3636 30.3332 78.6308 29.0244 79.1954L29.8165 81.0318C30.8258 80.5965 32.0383 80.3636 33.4773 80.3636V78.3636ZM29.0211 79.1969C27.7371 79.7562 26.6903 80.5453 25.9235 81.5812L27.531 82.7711C28.0597 82.0569 28.8083 81.4711 29.8198 81.0304L29.0211 79.1969ZM25.9185 81.588C25.154 82.6392 24.7727 83.8407 24.7727 85.1591H26.7727C26.7727 84.2502 27.0278 83.4631 27.536 82.7643L25.9185 81.588ZM24.7727 85.1591C24.7727 86.255 25.0356 87.2551 25.6033 88.1139L27.2717 87.0111C26.9531 86.529 26.7727 85.9269 26.7727 85.1591H24.7727ZM25.6143 88.1302C26.1489 88.9054 26.829 89.5499 27.6437 90.0624L28.7086 88.3694C28.1142 87.9956 27.6352 87.5378 27.2607 86.9948L25.6143 88.1302ZM27.6536 90.0685C28.4141 90.5346 29.2122 90.9214 30.047 91.2283L30.7371 89.3512C30.0265 89.0899 29.3473 88.7608 28.6987 88.3633L27.6536 90.0685ZM30.0592 91.2328C30.8523 91.5127 31.589 91.7429 32.2682 91.9216L32.7772 89.9875C32.161 89.8253 31.4773 89.6123 30.7249 89.3468L30.0592 91.2328ZM32.2628 91.9202L35.8082 92.8747L36.3282 90.9435L32.7827 89.9889L32.2628 91.9202ZM35.8143 92.8763C36.6823 93.1042 37.6598 93.422 38.7491 93.8333L39.4555 91.9622C38.3174 91.5325 37.2723 91.1913 36.3221 90.9419L35.8143 92.8763ZM38.7522 93.8344C39.7922 94.2231 40.7893 94.7551 41.7443 95.4343L42.9034 93.8044C41.813 93.029 40.6624 92.4132 39.4524 91.961L38.7522 93.8344ZM41.7547 95.4415C42.6662 96.0726 43.4214 96.8854 44.0217 97.8926L45.7397 96.8687C44.9991 95.626 44.0497 94.5979 42.8931 93.7971L41.7547 95.4415ZM44.0217 97.8926C44.5794 98.8285 44.8864 100.022 44.8864 101.523H46.8864C46.8864 99.7507 46.5228 98.1828 45.7397 96.8687L44.0217 97.8926ZM44.8864 101.523C44.8864 103.224 44.4438 104.738 43.5647 106.092L45.2421 107.181C46.3403 105.49 46.8864 103.594 46.8864 101.523H44.8864ZM43.5618 106.096C42.7001 107.439 41.4227 108.534 39.6782 109.364L40.5377 111.17C42.5659 110.205 44.1522 108.879 45.245 107.176L43.5618 106.096ZM39.6761 109.365C37.9691 110.182 35.8469 110.614 33.2727 110.614V112.614C36.0622 112.614 38.4968 112.147 40.5398 111.169L39.6761 109.365ZM33.2727 110.614C30.878 110.614 28.8567 110.227 27.1819 109.488L26.3749 111.318C28.3592 112.193 30.6675 112.614 33.2727 112.614V110.614ZM27.184 109.489C25.5079 108.746 24.2231 107.726 23.2928 106.442L21.6731 107.615C22.8337 109.217 24.4125 110.448 26.3728 111.317L27.184 109.489ZM23.2958 106.446C22.3777 105.165 21.849 103.669 21.7247 101.929L19.7298 102.071C19.8783 104.15 20.5201 106.006 21.6701 107.611L23.2958 106.446ZM20.7273 103H25.0909V101H20.7273V103ZM24.0946 102.086C24.2241 103.588 24.7381 104.892 25.6752 105.94L27.1657 104.606C26.5573 103.926 26.185 103.049 26.0872 101.914L24.0946 102.086ZM25.6845 105.95C26.5894 106.933 27.7211 107.655 29.054 108.125L29.7187 106.239C28.6652 105.867 27.8197 105.317 27.1564 104.596L25.6845 105.95ZM29.0648 108.129C30.3818 108.576 31.7868 108.795 33.2727 108.795V106.795C31.9859 106.795 30.8 106.606 29.7079 106.235L29.0648 108.129ZM33.2727 108.795C34.9947 108.795 36.5746 108.516 37.9964 107.938L37.2423 106.085C36.0959 106.552 34.778 106.795 33.2727 106.795V108.795ZM38.0034 107.935C39.4194 107.346 40.5826 106.513 41.4532 105.418L39.8878 104.173C39.2583 104.965 38.3875 105.609 37.2353 106.088L38.0034 107.935ZM41.4568 105.413C42.3522 104.274 42.7955 102.94 42.7955 101.455H40.7955C40.7955 102.515 40.4887 103.408 39.8841 104.178L41.4568 105.413ZM42.7955 101.455C42.7955 100.099 42.4115 98.904 41.5706 97.9599L40.0771 99.2901C40.5317 99.8005 40.7955 100.492 40.7955 101.455H42.7955ZM41.5706 97.9599C40.8096 97.1054 39.8292 96.4356 38.6622 95.9336L37.8719 97.7709C38.8185 98.178 39.5427 98.6901 40.0771 99.2901L41.5706 97.9599ZM38.6622 95.9336C37.5598 95.4595 36.3747 95.0473 35.1086 94.6956L34.5733 96.6226C35.7616 96.9527 36.8607 97.336 37.8719 97.7709L38.6622 95.9336ZM35.1156 94.6976L30.8202 93.4703L30.2707 95.3933L34.5662 96.6206L35.1156 94.6976ZM30.8218 93.4707C28.1977 92.7163 26.1899 91.6587 24.743 90.3358L23.3934 91.8119C25.1283 93.3981 27.4387 94.5791 30.2691 95.3929L30.8218 93.4707ZM24.743 90.3358C23.3795 89.0892 22.6818 87.4638 22.6818 85.3636H20.6818C20.6818 87.968 21.5751 90.1494 23.3934 91.8119L24.743 90.3358ZM22.6818 85.3636C22.6818 83.6009 23.1543 82.1064 24.0761 80.8378L22.458 79.6622C21.2661 81.3027 20.6818 83.2173 20.6818 85.3636H22.6818ZM24.0752 80.8389C25.0324 79.5254 26.3216 78.4948 27.9724 77.753L27.1526 75.9288C25.2125 76.8006 23.6381 78.0428 22.4589 79.6611L24.0752 80.8389ZM27.975 77.7519C29.6371 76.9992 31.5111 76.6136 33.6136 76.6136V74.6136C31.2616 74.6136 29.1015 75.0463 27.15 75.93L27.975 77.7519ZM33.6136 76.6136C35.7431 76.6136 37.5964 76.995 39.195 77.732L40.0323 75.9157C38.1308 75.0391 35.9841 74.6136 33.6136 74.6136V76.6136ZM39.1998 77.7342C40.813 78.4675 42.0578 79.4564 42.968 80.6902L44.5775 79.5029C43.4422 77.9641 41.9143 76.7711 40.0274 75.9135L39.1998 77.7342ZM42.9712 80.6945C43.8806 81.9137 44.3593 83.2893 44.4096 84.8504L46.4086 84.7859C46.3453 82.8244 45.7331 81.0522 44.5743 79.4987L42.9712 80.6945ZM45.4091 83.8182H41.3182V85.8182H45.4091V83.8182ZM49.7884 111V112H50.4945L50.7307 111.335L49.7884 111ZM48.8651 111L47.9263 110.655L47.4326 112H48.8651V111ZM51.5355 103.727V102.727H50.8374L50.5968 103.383L51.5355 103.727ZM52.4446 103.727L53.3833 103.383L53.1427 102.727H52.4446V103.727ZM55.1151 111V112H56.5475L56.0538 110.655L55.1151 111ZM54.1918 111L53.2494 111.335L53.4856 112H54.1918V111ZM52.0185 104.878L52.9608 104.543L52.7246 103.878H52.0185V104.878ZM51.9616 104.878V103.878H51.2555L51.0193 104.543L51.9616 104.878ZM50.1293 108.159V107.159H49.1293V108.159H50.1293ZM53.8509 108.159H54.8509V107.159H53.8509V108.159ZM53.8509 108.94V109.94H54.8509V108.94H53.8509ZM50.1293 108.94H49.1293V109.94H50.1293V108.94ZM49.7884 110H48.8651V112H49.7884V110ZM49.8038 111.345L52.4742 104.072L50.5968 103.383L47.9263 110.655L49.8038 111.345ZM51.5355 104.727H52.4446V102.727H51.5355V104.727ZM51.5059 104.072L54.1763 111.345L56.0538 110.655L53.3833 103.383L51.5059 104.072ZM55.1151 110H54.1918V112H55.1151V110ZM55.1341 110.665L52.9608 104.543L51.0761 105.212L53.2494 111.335L55.1341 110.665ZM52.0185 103.878H51.9616V105.878H52.0185V103.878ZM51.0193 104.543L48.846 110.665L50.7307 111.335L52.904 105.212L51.0193 104.543ZM50.1293 109.159H53.8509V107.159H50.1293V109.159ZM52.8509 108.159V108.94H54.8509V108.159H52.8509ZM53.8509 107.94H50.1293V109.94H53.8509V107.94ZM51.1293 108.94V108.159H49.1293V108.94H51.1293ZM59.0604 103.727V102.727H58.0604V103.727H59.0604ZM60.1115 103.727L61.0369 103.348L60.7827 102.727H60.1115V103.727ZM62.5831 109.764L61.6577 110.143L61.9119 110.764H62.5831V109.764ZM62.6683 109.764V110.764H63.3395L63.5938 110.143L62.6683 109.764ZM65.1399 103.727V102.727H64.4688L64.2145 103.348L65.1399 103.727ZM66.1911 103.727H67.1911V102.727H66.1911V103.727ZM66.1911 111V112H67.1911V111H66.1911ZM65.3672 111H64.3672V112H65.3672V111ZM65.3672 105.474H66.3672V104.474H65.3672V105.474ZM65.2962 105.474V104.474H64.6262L64.3713 105.094L65.2962 105.474ZM63.0234 111V112H63.6934L63.9483 111.38L63.0234 111ZM62.228 111L61.3032 111.38L61.558 112H62.228V111ZM59.9553 105.474L60.8801 105.094L60.6252 104.474H59.9553V105.474ZM59.8842 105.474V104.474H58.8842V105.474H59.8842ZM59.8842 111V112H60.8842V111H59.8842ZM59.0604 111H58.0604V112H59.0604V111ZM59.0604 104.727H60.1115V102.727H59.0604V104.727ZM59.1861 104.106L61.6577 110.143L63.5085 109.385L61.0369 103.348L59.1861 104.106ZM62.5831 110.764H62.6683V108.764H62.5831V110.764ZM63.5938 110.143L66.0654 104.106L64.2145 103.348L61.7429 109.385L63.5938 110.143ZM65.1399 104.727H66.1911V102.727H65.1399V104.727ZM65.1911 103.727V111H67.1911V103.727H65.1911ZM66.1911 110H65.3672V112H66.1911V110ZM66.3672 111V105.474H64.3672V111H66.3672ZM65.3672 104.474H65.2962V106.474H65.3672V104.474ZM64.3713 105.094L62.0986 110.62L63.9483 111.38L66.221 105.855L64.3713 105.094ZM63.0234 110H62.228V112H63.0234V110ZM63.1528 110.62L60.8801 105.094L59.0304 105.855L61.3032 111.38L63.1528 110.62ZM59.9553 104.474H59.8842V106.474H59.9553V104.474ZM58.8842 105.474V111H60.8842V105.474H58.8842ZM59.8842 110H59.0604V112H59.8842V110ZM60.0604 111V103.727H58.0604V111H60.0604ZM75.5478 111V112H76.2539L76.4901 111.335L75.5478 111ZM71.1159 111L70.1772 110.655L69.6835 112H71.1159V111ZM83.9341 76.0909V75.0909H83.236L82.9954 75.7462L83.9341 76.0909ZM88.2978 76.0909L89.2365 75.7462L88.9959 75.0909H88.2978V76.0909ZM101.116 111V112H102.548L102.055 110.655L101.116 111ZM96.6841 111L95.7417 111.335L95.978 112H96.6841V111ZM86.2523 81.6136L87.1947 81.2791L86.9585 80.6136H86.2523V81.6136ZM85.9796 81.6136V80.6136H85.2734L85.0372 81.2791L85.9796 81.6136ZM77.1841 97.3636V96.3636H76.1841V97.3636H77.1841ZM95.0478 97.3636H96.0478V96.3636H95.0478V97.3636ZM95.0478 101.114V102.114H96.0478V101.114H95.0478ZM77.1841 101.114H76.1841V102.114H77.1841V101.114ZM75.5478 110H71.1159V112H75.5478V110ZM72.0547 111.345L84.8728 76.4356L82.9954 75.7462L70.1772 110.655L72.0547 111.345ZM83.9341 77.0909H88.2978V75.0909H83.9341V77.0909ZM87.359 76.4356L100.177 111.345L102.055 110.655L89.2365 75.7462L87.359 76.4356ZM101.116 110H96.6841V112H101.116V110ZM97.6265 110.665L87.1947 81.2791L85.3099 81.9482L95.7417 111.335L97.6265 110.665ZM86.2523 80.6136H85.9796V82.6136H86.2523V80.6136ZM85.0372 81.2791L74.6054 110.665L76.4901 111.335L86.922 81.9482L85.0372 81.2791ZM77.1841 98.3636H95.0478V96.3636H77.1841V98.3636ZM94.0478 97.3636V101.114H96.0478V97.3636H94.0478ZM95.0478 100.114H77.1841V102.114H95.0478V100.114ZM78.1841 101.114V97.3636H76.1841V101.114H78.1841ZM108.974 103.727H109.974V102.727H108.974V103.727ZM108.974 111V112H109.974V111H108.974ZM108.122 111L107.3 111.57L107.598 112H108.122V111ZM104.159 105.29L104.98 104.72L104.682 104.29H104.159V105.29ZM104.088 105.29V104.29H103.088V105.29H104.088ZM104.088 111V112H105.088V111H104.088ZM103.207 111H102.207V112H103.207V111ZM103.207 103.727V102.727H102.207V103.727H103.207ZM104.059 103.727L104.88 103.157L104.582 102.727H104.059V103.727ZM108.036 109.452L107.215 110.022L107.514 110.452H108.036V109.452ZM108.107 109.452V110.452H109.107V109.452H108.107ZM108.107 103.727V102.727H107.107V103.727H108.107ZM107.974 103.727V111H109.974V103.727H107.974ZM108.974 110H108.122V112H108.974V110ZM108.943 110.43L104.98 104.72L103.337 105.86L107.3 111.57L108.943 110.43ZM104.159 104.29H104.088V106.29H104.159V104.29ZM103.088 105.29V111H105.088V105.29H103.088ZM104.088 110H103.207V112H104.088V110ZM104.207 111V103.727H102.207V111H104.207ZM103.207 104.727H104.059V102.727H103.207V104.727ZM103.238 104.298L107.215 110.022L108.858 108.881L104.88 103.157L103.238 104.298ZM108.036 110.452H108.107V108.452H108.036V110.452ZM109.107 109.452V103.727H107.107V109.452H109.107ZM108.107 104.727H108.974V102.727H108.107V104.727ZM114.429 103.727H115.429V102.727H114.429V103.727ZM114.429 111V112H115.429V111H114.429ZM113.549 111H112.549V112H113.549V111ZM113.549 103.727V102.727H112.549V103.727H113.549ZM113.429 103.727V111H115.429V103.727H113.429ZM114.429 110H113.549V112H114.429V110ZM114.549 111V103.727H112.549V111H114.549ZM113.549 104.727H114.429V102.727H113.549V104.727ZM119.008 103.727V102.727H118.008V103.727H119.008ZM120.059 103.727L120.984 103.348L120.73 102.727H120.059V103.727ZM122.53 109.764L121.605 110.143L121.859 110.764H122.53V109.764ZM122.616 109.764V110.764H123.287L123.541 110.143L122.616 109.764ZM125.087 103.727V102.727H124.416L124.162 103.348L125.087 103.727ZM126.138 103.727H127.138V102.727H126.138V103.727ZM126.138 111V112H127.138V111H126.138ZM125.314 111H124.314V112H125.314V111ZM125.314 105.474H126.314V104.474H125.314V105.474ZM125.243 105.474V104.474H124.573L124.319 105.094L125.243 105.474ZM122.971 111V112H123.641L123.896 111.38L122.971 111ZM122.175 111L121.25 111.38L121.505 112H122.175V111ZM119.903 105.474L120.827 105.094L120.572 104.474H119.903V105.474ZM119.831 105.474V104.474H118.831V105.474H119.831ZM119.831 111V112H120.831V111H119.831ZM119.008 111H118.008V112H119.008V111ZM119.008 104.727H120.059V102.727H119.008V104.727ZM119.133 104.106L121.605 110.143L123.456 109.385L120.984 103.348L119.133 104.106ZM122.53 110.764H122.616V108.764H122.53V110.764ZM123.541 110.143L126.013 104.106L124.162 103.348L121.69 109.385L123.541 110.143ZM125.087 104.727H126.138V102.727H125.087V104.727ZM125.138 103.727V111H127.138V103.727H125.138ZM126.138 110H125.314V112H126.138V110ZM126.314 111V105.474H124.314V111H126.314ZM125.314 104.474H125.243V106.474H125.314V104.474ZM124.319 105.094L122.046 110.62L123.896 111.38L126.168 105.855L124.319 105.094ZM122.971 110H122.175V112H122.971V110ZM123.1 110.62L120.827 105.094L118.978 105.855L121.25 111.38L123.1 110.62ZM119.903 104.474H119.831V106.474H119.903V104.474ZM118.831 105.474V111H120.831V105.474H118.831ZM119.831 110H119.008V112H119.831V110ZM120.008 111V103.727H118.008V111H120.008ZM131.015 111V112H131.721L131.957 111.335L131.015 111ZM130.092 111L129.153 110.655L128.659 112H130.092V111ZM132.762 103.727V102.727H132.064L131.823 103.383L132.762 103.727ZM133.671 103.727L134.61 103.383L134.369 102.727H133.671V103.727ZM136.342 111V112H137.774L137.28 110.655L136.342 111ZM135.418 111L134.476 111.335L134.712 112H135.418V111ZM133.245 104.878L134.187 104.543L133.951 103.878H133.245V104.878ZM133.188 104.878V103.878H132.482L132.246 104.543L133.188 104.878ZM131.356 108.159V107.159H130.356V108.159H131.356ZM135.077 108.159H136.077V107.159H135.077V108.159ZM135.077 108.94V109.94H136.077V108.94H135.077ZM131.356 108.94H130.356V109.94H131.356V108.94ZM131.015 110H130.092V112H131.015V110ZM131.03 111.345L133.701 104.072L131.823 103.383L129.153 110.655L131.03 111.345ZM132.762 104.727H133.671V102.727H132.762V104.727ZM132.732 104.072L135.403 111.345L137.28 110.655L134.61 103.383L132.732 104.072ZM136.342 110H135.418V112H136.342V110ZM136.361 110.665L134.187 104.543L132.303 105.212L134.476 111.335L136.361 110.665ZM133.245 103.878H133.188V105.878H133.245V103.878ZM132.246 104.543L130.073 110.665L131.957 111.335L134.131 105.212L132.246 104.543ZM131.356 109.159H135.077V107.159H131.356V109.159ZM134.077 108.159V108.94H136.077V108.159H134.077ZM135.077 107.94H131.356V109.94H135.077V107.94ZM132.356 108.94V108.159H130.356V108.94H132.356ZM139.889 104.509H138.889V105.509H139.889V104.509ZM139.889 103.727V102.727H138.889V103.727H139.889ZM145.344 103.727H146.344V102.727H145.344V103.727ZM145.344 104.509V105.509H146.344V104.509H145.344ZM143.057 104.509V103.509H142.057V104.509H143.057ZM143.057 111V112H144.057V111H143.057ZM142.176 111H141.176V112H142.176V111ZM142.176 104.509H143.176V103.509H142.176V104.509ZM140.889 104.509V103.727H138.889V104.509H140.889ZM139.889 104.727H145.344V102.727H139.889V104.727ZM144.344 103.727V104.509H146.344V103.727H144.344ZM145.344 103.509H143.057V105.509H145.344V103.509ZM142.057 104.509V111H144.057V104.509H142.057ZM143.057 110H142.176V112H143.057V110ZM143.176 111V104.509H141.176V111H143.176ZM142.176 103.509H139.889V105.509H142.176V103.509ZM150.396 103.727H151.396V102.727H150.396V103.727ZM150.396 111V112H151.396V111H150.396ZM149.515 111H148.515V112H149.515V111ZM149.515 103.727V102.727H148.515V103.727H149.515ZM149.396 103.727V111H151.396V103.727H149.396ZM150.396 110H149.515V112H150.396V110ZM150.515 111V103.727H148.515V111H150.515ZM149.515 104.727H150.396V102.727H149.515V104.727ZM160.695 109.352L159.799 108.908V108.908L160.695 109.352ZM159.555 110.645L160.087 111.492V111.492L159.555 110.645ZM156.246 110.645L155.714 111.492V111.492L156.246 110.645ZM155.106 109.352L156.002 108.908V108.908L155.106 109.352ZM155.106 105.375L154.21 104.931L155.106 105.375ZM159.555 104.082L160.087 103.235V103.235L159.555 104.082ZM160.695 105.375L159.799 105.819V105.819L160.695 105.375ZM159.942 105.769L159.041 106.203L159.043 106.207L159.942 105.769ZM159.094 104.786L158.563 105.633L158.565 105.634L159.094 104.786ZM156.704 104.786L156.175 103.937L156.173 103.938L156.704 104.786ZM155.855 105.769L154.956 105.332L154.954 105.336L155.855 105.769ZM155.855 108.958L154.954 109.391L154.956 109.395L155.855 108.958ZM156.704 109.942L156.173 110.789L156.175 110.791L156.704 109.942ZM159.094 109.942L158.565 109.093L158.563 109.094L159.094 109.942ZM159.942 108.958L159.043 108.521L159.041 108.525L159.942 108.958ZM160.111 107.364C160.111 108.011 159.994 108.516 159.799 108.908L161.591 109.796C161.951 109.072 162.111 108.25 162.111 107.364H160.111ZM159.799 108.908C159.596 109.317 159.336 109.602 159.024 109.798L160.087 111.492C160.741 111.082 161.24 110.504 161.591 109.796L159.799 108.908ZM159.024 109.798C158.714 109.992 158.35 110.099 157.901 110.099V112.099C158.692 112.099 159.431 111.904 160.087 111.492L159.024 109.798ZM157.901 110.099C157.451 110.099 157.087 109.992 156.777 109.798L155.714 111.492C156.37 111.904 157.109 112.099 157.901 112.099V110.099ZM156.777 109.798C156.465 109.602 156.205 109.317 156.002 108.908L154.21 109.796C154.561 110.504 155.06 111.082 155.714 111.492L156.777 109.798ZM156.002 108.908C155.807 108.516 155.69 108.011 155.69 107.364H153.69C153.69 108.25 153.851 109.072 154.21 109.796L156.002 108.908ZM155.69 107.364C155.69 106.716 155.807 106.212 156.002 105.819L154.21 104.931C153.851 105.656 153.69 106.477 153.69 107.364H155.69ZM156.002 105.819C156.205 105.41 156.465 105.125 156.777 104.929L155.714 103.235C155.06 103.646 154.561 104.223 154.21 104.931L156.002 105.819ZM156.777 104.929C157.087 104.735 157.451 104.628 157.901 104.628V102.628C157.109 102.628 156.37 102.824 155.714 103.235L156.777 104.929ZM157.901 104.628C158.35 104.628 158.714 104.735 159.024 104.929L160.087 103.235C159.431 102.824 158.692 102.628 157.901 102.628V104.628ZM159.024 104.929C159.336 105.125 159.596 105.41 159.799 105.819L161.591 104.931C161.24 104.223 160.741 103.646 160.087 103.235L159.024 104.929ZM159.799 105.819C159.994 106.212 160.111 106.716 160.111 107.364H162.111C162.111 106.477 161.951 105.656 161.591 104.931L159.799 105.819ZM161.259 107.364C161.259 106.627 161.136 105.937 160.842 105.332L159.043 106.207C159.171 106.468 159.259 106.841 159.259 107.364H161.259ZM160.844 105.336C160.565 104.756 160.163 104.273 159.622 103.937L158.565 105.634C158.74 105.743 158.903 105.916 159.041 106.203L160.844 105.336ZM159.625 103.938C159.102 103.611 158.519 103.452 157.901 103.452V105.452C158.163 105.452 158.375 105.515 158.563 105.633L159.625 103.938ZM157.901 103.452C157.282 103.452 156.699 103.611 156.175 103.937L157.232 105.634C157.424 105.515 157.638 105.452 157.901 105.452V103.452ZM156.173 103.938C155.636 104.274 155.236 104.756 154.956 105.332L156.754 106.207C156.896 105.916 157.061 105.742 157.235 105.633L156.173 103.938ZM154.954 105.336C154.664 105.939 154.543 106.628 154.543 107.364H156.543C156.543 106.839 156.63 106.465 156.756 106.203L154.954 105.336ZM154.543 107.364C154.543 108.099 154.664 108.788 154.954 109.391L156.756 108.525C156.63 108.262 156.543 107.888 156.543 107.364H154.543ZM154.956 109.395C155.236 109.971 155.636 110.453 156.173 110.789L157.235 109.094C157.061 108.986 156.896 108.811 156.754 108.521L154.956 109.395ZM156.175 110.791C156.699 111.117 157.282 111.276 157.901 111.276V109.276C157.638 109.276 157.424 109.212 157.232 109.093L156.175 110.791ZM157.901 111.276C158.519 111.276 159.102 111.117 159.625 110.789L158.563 109.094C158.375 109.212 158.163 109.276 157.901 109.276V111.276ZM159.622 110.791C160.163 110.454 160.565 109.971 160.844 109.391L159.041 108.525C158.903 108.812 158.74 108.984 158.565 109.093L159.622 110.791ZM160.842 109.395C161.136 108.791 161.259 108.1 161.259 107.364H159.259C159.259 107.887 159.171 108.259 159.043 108.521L160.842 109.395ZM171.171 103.727H172.171V102.727H171.171V103.727ZM171.171 111V112H172.171V111H171.171ZM170.319 111L169.497 111.57L169.796 112H170.319V111ZM166.356 105.29L167.177 104.72L166.879 104.29H166.356V105.29ZM166.285 105.29V104.29H165.285V105.29H166.285ZM166.285 111V112H167.285V111H166.285ZM165.404 111H164.404V112H165.404V111ZM165.404 103.727V102.727H164.404V103.727H165.404ZM166.256 103.727L167.078 103.157L166.779 102.727H166.256V103.727ZM170.234 109.452L169.412 110.022L169.711 110.452H170.234V109.452ZM170.305 109.452V110.452H171.305V109.452H170.305ZM170.305 103.727V102.727H169.305V103.727H170.305ZM170.171 103.727V111H172.171V103.727H170.171ZM171.171 110H170.319V112H171.171V110ZM171.14 110.43L167.177 104.72L165.534 105.86L169.497 111.57L171.14 110.43ZM166.356 104.29H166.285V106.29H166.356V104.29ZM165.285 105.29V111H167.285V105.29H165.285ZM166.285 110H165.404V112H166.285V110ZM166.404 111V103.727H164.404V111H166.404ZM165.404 104.727H166.256V102.727H165.404V104.727ZM165.435 104.298L169.412 110.022L171.055 108.881L167.078 103.157L165.435 104.298ZM170.234 110.452H170.305V108.452H170.234V110.452ZM171.305 109.452V103.727H169.305V109.452H171.305ZM170.305 104.727H171.171V102.727H170.305V104.727ZM195.371 84.8182L194.378 84.9358L194.482 85.8182H195.371V84.8182ZM192.882 80.7955L192.334 81.6315V81.6315L192.882 80.7955ZM183.473 80.1136L183.077 79.1954L183.074 79.1969L183.473 80.1136ZM180.78 82.1761L179.976 81.5811L179.971 81.588L180.78 82.1761ZM180.49 87.5625L179.656 88.1139L179.661 88.1221L179.667 88.1302L180.49 87.5625ZM182.229 89.2159L181.696 90.0624L181.706 90.0685L182.229 89.2159ZM184.445 90.2898L184.1 91.2284L184.112 91.2328L184.445 90.2898ZM186.575 90.9545L186.835 89.9889L186.83 89.9875L186.575 90.9545ZM190.121 91.9091L189.861 92.8747L189.867 92.8763L190.121 91.9091ZM193.155 92.8977L192.802 93.8333L192.805 93.8344L193.155 92.8977ZM196.377 94.6193L195.797 95.4343L195.807 95.4415L196.377 94.6193ZM198.933 97.3807L199.792 96.8687V96.8687L198.933 97.3807ZM198.456 106.636L197.617 106.092L197.615 106.096L198.456 106.636ZM194.161 110.267L193.731 109.364L193.729 109.365L194.161 110.267ZM180.831 110.403L180.426 111.317L180.428 111.318L180.831 110.403ZM176.536 107.028L175.723 107.611L175.726 107.615L176.536 107.028ZM174.78 102V101H173.706L173.783 102.071L174.78 102ZM179.144 102L180.14 101.914L180.061 101H179.144V102ZM180.473 105.273L179.728 105.94L179.737 105.95L180.473 105.273ZM183.439 107.182L183.107 108.125L183.118 108.129L183.439 107.182ZM191.672 107.011L192.049 107.938L192.056 107.935L191.672 107.011ZM194.723 104.795L195.506 105.418L195.51 105.413L194.723 104.795ZM194.877 98.625L195.623 97.9599V97.9599L194.877 98.625ZM192.32 96.8523L191.925 97.7709V97.7709L192.32 96.8523ZM188.894 95.6591L188.619 96.6206L188.626 96.6226L188.894 95.6591ZM184.598 94.4318L184.322 95.3929L184.323 95.3933L184.598 94.4318ZM178.121 91.0739L177.446 91.8119V91.8119L178.121 91.0739ZM177.32 80.25L176.512 79.6611L176.511 79.6622L177.32 80.25ZM181.615 76.8409L182.025 77.753L182.028 77.7519L181.615 76.8409ZM193.666 76.8239L193.248 77.732L193.253 77.7342L193.666 76.8239ZM197.825 80.0966L197.021 80.6902L197.024 80.6945L197.825 80.0966ZM199.462 84.8182V85.8182H200.495L200.461 84.7859L199.462 84.8182ZM196.364 84.7006C196.125 82.6799 195.132 81.076 193.431 79.9594L192.334 81.6315C193.541 82.424 194.208 83.502 194.378 84.9358L196.364 84.7006ZM193.431 79.9594C191.781 78.8768 189.796 78.3636 187.53 78.3636V80.3636C189.491 80.3636 191.074 80.805 192.334 81.6315L193.431 79.9594ZM187.53 78.3636C185.878 78.3636 184.386 78.6308 183.077 79.1954L183.869 81.0318C184.879 80.5965 186.091 80.3636 187.53 80.3636V78.3636ZM183.074 79.1969C181.79 79.7562 180.743 80.5453 179.976 81.5812L181.584 82.7711C182.112 82.0569 182.861 81.4711 183.873 81.0304L183.074 79.1969ZM179.971 81.588C179.207 82.6392 178.825 83.8407 178.825 85.1591H180.825C180.825 84.2502 181.081 83.4631 181.589 82.7643L179.971 81.588ZM178.825 85.1591C178.825 86.255 179.088 87.2551 179.656 88.1139L181.324 87.0111C181.006 86.529 180.825 85.9269 180.825 85.1591H178.825ZM179.667 88.1302C180.202 88.9054 180.882 89.5499 181.696 90.0624L182.761 88.3694C182.167 87.9956 181.688 87.5378 181.313 86.9948L179.667 88.1302ZM181.706 90.0685C182.467 90.5346 183.265 90.9214 184.1 91.2283L184.79 89.3512C184.079 89.0899 183.4 88.7608 182.751 88.3633L181.706 90.0685ZM184.112 91.2328C184.905 91.5127 185.642 91.7429 186.321 91.9216L186.83 89.9875C186.214 89.8253 185.53 89.6123 184.778 89.3468L184.112 91.2328ZM186.315 91.9202L189.861 92.8747L190.381 90.9435L186.835 89.9889L186.315 91.9202ZM189.867 92.8763C190.735 93.1042 191.713 93.422 192.802 93.8333L193.508 91.9622C192.37 91.5325 191.325 91.1913 190.375 90.9419L189.867 92.8763ZM192.805 93.8344C193.845 94.2231 194.842 94.7551 195.797 95.4343L196.956 93.8044C195.866 93.029 194.715 92.4132 193.505 91.961L192.805 93.8344ZM195.807 95.4415C196.719 96.0726 197.474 96.8854 198.074 97.8926L199.792 96.8687C199.052 95.626 198.102 94.5979 196.946 93.7971L195.807 95.4415ZM198.074 97.8926C198.632 98.8285 198.939 100.022 198.939 101.523H200.939C200.939 99.7507 200.576 98.1828 199.792 96.8687L198.074 97.8926ZM198.939 101.523C198.939 103.224 198.497 104.738 197.617 106.092L199.295 107.181C200.393 105.49 200.939 103.594 200.939 101.523H198.939ZM197.615 106.096C196.753 107.439 195.475 108.534 193.731 109.364L194.59 111.17C196.619 110.205 198.205 108.879 199.298 107.176L197.615 106.096ZM193.729 109.365C192.022 110.182 189.9 110.614 187.325 110.614V112.614C190.115 112.614 192.55 112.147 194.593 111.169L193.729 109.365ZM187.325 110.614C184.931 110.614 182.909 110.227 181.235 109.488L180.428 111.318C182.412 112.193 184.72 112.614 187.325 112.614V110.614ZM181.237 109.489C179.561 108.746 178.276 107.726 177.346 106.442L175.726 107.615C176.886 109.217 178.465 110.448 180.426 111.317L181.237 109.489ZM177.349 106.446C176.43 105.165 175.902 103.669 175.777 101.929L173.783 102.071C173.931 104.15 174.573 106.006 175.723 107.611L177.349 106.446ZM174.78 103H179.144V101H174.78V103ZM178.147 102.086C178.277 103.588 178.791 104.892 179.728 105.94L181.218 104.606C180.61 103.926 180.238 103.049 180.14 101.914L178.147 102.086ZM179.737 105.95C180.642 106.933 181.774 107.655 183.107 108.125L183.771 106.239C182.718 105.867 181.872 105.317 181.209 104.596L179.737 105.95ZM183.118 108.129C184.435 108.576 185.84 108.795 187.325 108.795V106.795C186.039 106.795 184.853 106.606 183.761 106.235L183.118 108.129ZM187.325 108.795C189.047 108.795 190.627 108.516 192.049 107.938L191.295 106.085C190.149 106.552 188.831 106.795 187.325 106.795V108.795ZM192.056 107.935C193.472 107.346 194.635 106.513 195.506 105.418L193.94 104.173C193.311 104.965 192.44 105.609 191.288 106.088L192.056 107.935ZM195.51 105.413C196.405 104.274 196.848 102.94 196.848 101.455H194.848C194.848 102.515 194.541 103.408 193.937 104.178L195.51 105.413ZM196.848 101.455C196.848 100.099 196.464 98.904 195.623 97.9599L194.13 99.2901C194.584 99.8005 194.848 100.492 194.848 101.455H196.848ZM195.623 97.9599C194.862 97.1054 193.882 96.4356 192.715 95.9336L191.925 97.7709C192.871 98.178 193.595 98.6901 194.13 99.2901L195.623 97.9599ZM192.715 95.9336C191.613 95.4595 190.427 95.0473 189.161 94.6956L188.626 96.6226C189.814 96.9527 190.913 97.336 191.925 97.7709L192.715 95.9336ZM189.168 94.6976L184.873 93.4703L184.323 95.3933L188.619 96.6206L189.168 94.6976ZM184.874 93.4707C182.25 92.7163 180.243 91.6587 178.796 90.3358L177.446 91.8119C179.181 93.3981 181.491 94.5791 184.322 95.3929L184.874 93.4707ZM178.796 90.3358C177.432 89.0892 176.735 87.4638 176.735 85.3636H174.735C174.735 87.968 175.628 90.1494 177.446 91.8119L178.796 90.3358ZM176.735 85.3636C176.735 83.6009 177.207 82.1064 178.129 80.8378L176.511 79.6622C175.319 81.3027 174.735 83.2173 174.735 85.3636H176.735ZM178.128 80.8389C179.085 79.5254 180.374 78.4948 182.025 77.753L181.205 75.9288C179.265 76.8006 177.691 78.0428 176.512 79.6611L178.128 80.8389ZM182.028 77.7519C183.69 76.9992 185.564 76.6136 187.666 76.6136V74.6136C185.314 74.6136 183.154 75.0463 181.203 75.93L182.028 77.7519ZM187.666 76.6136C189.796 76.6136 191.649 76.995 193.248 77.732L194.085 75.9157C192.184 75.0391 190.037 74.6136 187.666 74.6136V76.6136ZM193.253 77.7342C194.866 78.4675 196.111 79.4564 197.021 80.6902L198.63 79.5029C197.495 77.9641 195.967 76.7711 194.08 75.9135L193.253 77.7342ZM197.024 80.6945C197.933 81.9137 198.412 83.2893 198.462 84.8504L200.461 84.7859C200.398 82.8244 199.786 81.0522 198.627 79.4987L197.024 80.6945ZM199.462 83.8182H195.371V85.8182H199.462V83.8182ZM203.145 104.509H202.145V105.509H203.145V104.509ZM203.145 103.727V102.727H202.145V103.727H203.145ZM208.6 103.727H209.6V102.727H208.6V103.727ZM208.6 104.509V105.509H209.6V104.509H208.6ZM206.313 104.509V103.509H205.313V104.509H206.313ZM206.313 111V112H207.313V111H206.313ZM205.432 111H204.432V112H205.432V111ZM205.432 104.509H206.432V103.509H205.432V104.509ZM204.145 104.509V103.727H202.145V104.509H204.145ZM203.145 104.727H208.6V102.727H203.145V104.727ZM207.6 103.727V104.509H209.6V103.727H207.6ZM208.6 103.509H206.313V105.509H208.6V103.509ZM205.313 104.509V111H207.313V104.509H205.313ZM206.313 110H205.432V112H206.313V110ZM206.432 111V104.509H204.432V111H206.432ZM205.432 103.509H203.145V105.509H205.432V103.509ZM217.544 103.727V102.727H216.544V103.727H217.544ZM218.425 103.727H219.425V102.727H218.425V103.727ZM218.073 109.874L217.216 109.36L217.215 109.361L218.073 109.874ZM217.089 110.794L217.554 111.679L217.558 111.677L217.089 110.794ZM214.107 110.794L213.638 111.677L213.642 111.679L214.107 110.794ZM213.119 109.874L212.26 110.385L212.263 110.391L213.119 109.874ZM212.771 103.727V102.727H211.771V103.727H212.771ZM213.652 103.727H214.652V102.727H213.652V103.727ZM213.886 109.42L213.015 109.911L213.017 109.914L213.886 109.42ZM214.554 110.07L214.073 110.946L214.081 110.951L214.554 110.07ZM216.642 110.07L217.115 110.951L217.12 110.948L216.642 110.07ZM217.31 109.42L216.439 108.928L216.437 108.931L217.31 109.42ZM217.544 104.727H218.425V102.727H217.544V104.727ZM217.425 103.727V108.543H219.425V103.727H217.425ZM217.425 108.543C217.425 108.876 217.348 109.139 217.216 109.36L218.931 110.389C219.267 109.829 219.425 109.204 219.425 108.543H217.425ZM217.215 109.361C217.082 109.583 216.893 109.766 216.621 109.911L217.558 111.677C218.133 111.372 218.6 110.942 218.932 110.387L217.215 109.361ZM216.625 109.909C216.369 110.043 216.038 110.128 215.598 110.128V112.128C216.3 112.128 216.962 111.99 217.554 111.679L216.625 109.909ZM215.598 110.128C215.158 110.128 214.827 110.043 214.571 109.909L213.642 111.679C214.234 111.99 214.896 112.128 215.598 112.128V110.128ZM214.575 109.911C214.302 109.766 214.111 109.582 213.975 109.357L212.263 110.391C212.597 110.943 213.064 111.373 213.638 111.677L214.575 109.911ZM213.979 109.364C213.847 109.142 213.771 108.878 213.771 108.543H211.771C211.771 109.202 211.927 109.825 212.26 110.385L213.979 109.364ZM213.771 108.543V103.727H211.771V108.543H213.771ZM212.771 104.727H213.652V102.727H212.771V104.727ZM212.652 103.727V108.472H214.652V103.727H212.652ZM212.652 108.472C212.652 108.978 212.765 109.467 213.015 109.911L214.757 108.928C214.695 108.818 214.652 108.675 214.652 108.472H212.652ZM213.017 109.914C213.269 110.357 213.629 110.702 214.073 110.946L215.035 109.193C214.901 109.119 214.816 109.032 214.756 108.925L213.017 109.914ZM214.081 110.951C214.547 111.201 215.065 111.304 215.598 111.304V109.304C215.321 109.304 215.143 109.251 215.027 109.188L214.081 110.951ZM215.598 111.304C216.131 111.304 216.649 111.201 217.115 110.951L216.169 109.188C216.053 109.251 215.875 109.304 215.598 109.304V111.304ZM217.12 110.948C217.568 110.704 217.931 110.356 218.182 109.909L216.437 108.931C216.38 109.032 216.299 109.118 216.164 109.191L217.12 110.948ZM218.181 109.911C218.431 109.467 218.544 108.978 218.544 108.472H216.544C216.544 108.675 216.501 108.818 216.439 108.928L218.181 109.911ZM218.544 108.472V103.727H216.544V108.472H218.544ZM222.996 111H221.996V112H222.996V111ZM222.996 103.727V102.727H221.996V103.727H222.996ZM227.151 104.164L226.649 105.029L226.652 105.031L227.151 104.164ZM228.305 105.411L227.408 105.853L227.409 105.855L228.305 105.411ZM228.301 109.306L229.197 109.75L229.198 109.749L228.301 109.306ZM227.122 110.563L227.614 111.434L227.617 111.432L227.122 110.563ZM223.877 110.219H222.877V111.219H223.877V110.219ZM226.678 109.871L226.172 109.008L226.678 109.871ZM227.566 105.833L226.654 106.243L226.655 106.245L227.566 105.833ZM226.707 104.853L226.191 105.71L226.195 105.712L226.707 104.853ZM223.877 104.509V103.509H222.877V104.509H223.877ZM225.24 110H222.996V112H225.24V110ZM223.996 111V103.727H221.996V111H223.996ZM222.996 104.727H225.34V102.727H222.996V104.727ZM225.34 104.727C225.907 104.727 226.329 104.844 226.649 105.029L227.653 103.299C226.968 102.902 226.183 102.727 225.34 102.727V104.727ZM226.652 105.031C226.974 105.216 227.224 105.48 227.408 105.853L229.202 104.968C228.85 104.256 228.331 103.69 227.65 103.297L226.652 105.031ZM227.409 105.855C227.593 106.226 227.706 106.713 227.706 107.349H229.706C229.706 106.48 229.552 105.674 229.201 104.966L227.409 105.855ZM227.706 107.349C227.706 107.99 227.592 108.484 227.405 108.864L229.198 109.749C229.55 109.035 229.706 108.224 229.706 107.349H227.706ZM227.405 108.862C227.222 109.232 226.967 109.501 226.628 109.694L227.617 111.432C228.31 111.038 228.841 110.469 229.197 109.75L227.405 108.862ZM226.631 109.692C226.297 109.88 225.849 110 225.24 110V112C226.109 112 226.915 111.828 227.614 111.434L226.631 109.692ZM223.877 111.219H225.183V109.219H223.877V111.219ZM225.183 111.219C225.909 111.219 226.595 111.079 227.185 110.733L226.172 109.008C225.971 109.126 225.661 109.219 225.183 109.219V111.219ZM227.185 110.733C227.763 110.394 228.197 109.904 228.474 109.293L226.652 108.467C226.541 108.713 226.385 108.884 226.172 109.008L227.185 110.733ZM228.474 109.293C228.74 108.706 228.854 108.048 228.854 107.349H226.854C226.854 107.835 226.774 108.197 226.652 108.467L228.474 109.293ZM228.854 107.349C228.854 106.656 228.741 106.003 228.477 105.421L226.655 106.245C226.775 106.51 226.854 106.868 226.854 107.349H228.854ZM228.478 105.423C228.207 104.82 227.786 104.332 227.219 103.994L226.195 105.712C226.39 105.828 226.542 105.994 226.654 106.243L228.478 105.423ZM227.223 103.996C226.648 103.65 225.983 103.509 225.283 103.509V105.509C225.719 105.509 226.003 105.596 226.191 105.71L227.223 103.996ZM225.283 103.509H223.877V105.509H225.283V103.509ZM222.877 104.509V110.219H224.877V104.509H222.877ZM233.877 103.727H234.877V102.727H233.877V103.727ZM233.877 111V112H234.877V111H233.877ZM232.996 111H231.996V112H232.996V111ZM232.996 103.727V102.727H231.996V103.727H232.996ZM232.877 103.727V111H234.877V103.727H232.877ZM233.877 110H232.996V112H233.877V110ZM233.996 111V103.727H231.996V111H233.996ZM232.996 104.727H233.877V102.727H232.996V104.727ZM244.176 109.352L243.28 108.908V108.908L244.176 109.352ZM243.036 110.645L243.567 111.492V111.492L243.036 110.645ZM239.726 110.645L239.195 111.492V111.492L239.726 110.645ZM238.586 109.352L239.482 108.908V108.908L238.586 109.352ZM238.586 105.375L237.69 104.931L238.586 105.375ZM243.036 104.082L243.567 103.235V103.235L243.036 104.082ZM244.176 105.375L243.28 105.819V105.819L244.176 105.375ZM243.423 105.769L242.522 106.203L242.524 106.207L243.423 105.769ZM242.574 104.786L242.043 105.633L242.046 105.634L242.574 104.786ZM240.184 104.786L239.656 103.937L239.653 103.938L240.184 104.786ZM239.336 105.769L238.436 105.332L238.434 105.336L239.336 105.769ZM239.336 108.958L238.434 109.391L238.436 109.395L239.336 108.958ZM240.184 109.942L239.653 110.789L239.656 110.791L240.184 109.942ZM242.574 109.942L242.046 109.093L242.043 109.094L242.574 109.942ZM243.423 108.958L242.524 108.521L242.522 108.525L243.423 108.958ZM243.591 107.364C243.591 108.011 243.474 108.516 243.28 108.908L245.072 109.796C245.431 109.072 245.591 108.25 245.591 107.364H243.591ZM243.28 108.908C243.077 109.317 242.816 109.602 242.504 109.798L243.567 111.492C244.221 111.082 244.721 110.504 245.072 109.796L243.28 108.908ZM242.504 109.798C242.195 109.992 241.83 110.099 241.381 110.099V112.099C242.172 112.099 242.911 111.904 243.567 111.492L242.504 109.798ZM241.381 110.099C240.932 110.099 240.567 109.992 240.258 109.798L239.195 111.492C239.851 111.904 240.59 112.099 241.381 112.099V110.099ZM240.258 109.798C239.946 109.602 239.685 109.317 239.482 108.908L237.69 109.796C238.041 110.504 238.541 111.082 239.195 111.492L240.258 109.798ZM239.482 108.908C239.288 108.516 239.171 108.011 239.171 107.364H237.171C237.171 108.25 237.331 109.072 237.69 109.796L239.482 108.908ZM239.171 107.364C239.171 106.716 239.288 106.212 239.482 105.819L237.69 104.931C237.331 105.656 237.171 106.477 237.171 107.364H239.171ZM239.482 105.819C239.685 105.41 239.946 105.125 240.258 104.929L239.195 103.235C238.541 103.646 238.041 104.223 237.69 104.931L239.482 105.819ZM240.258 104.929C240.567 104.735 240.932 104.628 241.381 104.628V102.628C240.59 102.628 239.851 102.824 239.195 103.235L240.258 104.929ZM241.381 104.628C241.83 104.628 242.195 104.735 242.504 104.929L243.567 103.235C242.911 102.824 242.172 102.628 241.381 102.628V104.628ZM242.504 104.929C242.816 105.125 243.077 105.41 243.28 105.819L245.072 104.931C244.721 104.223 244.221 103.646 243.567 103.235L242.504 104.929ZM243.28 105.819C243.474 106.212 243.591 106.716 243.591 107.364H245.591C245.591 106.477 245.431 105.656 245.072 104.931L243.28 105.819ZM244.739 107.364C244.739 106.627 244.616 105.937 244.322 105.332L242.524 106.207C242.651 106.468 242.739 106.841 242.739 107.364H244.739ZM244.324 105.336C244.045 104.756 243.643 104.273 243.103 103.937L242.046 105.634C242.22 105.743 242.384 105.916 242.522 106.203L244.324 105.336ZM243.105 103.938C242.583 103.611 241.999 103.452 241.381 103.452V105.452C241.644 105.452 241.855 105.515 242.043 105.633L243.105 103.938ZM241.381 103.452C240.763 103.452 240.179 103.611 239.656 103.937L240.713 105.634C240.904 105.515 241.119 105.452 241.381 105.452V103.452ZM239.653 103.938C239.117 104.274 238.716 104.756 238.436 105.332L240.235 106.207C240.376 105.916 240.542 105.742 240.715 105.633L239.653 103.938ZM238.434 105.336C238.144 105.939 238.023 106.628 238.023 107.364H240.023C240.023 106.839 240.11 106.465 240.237 106.203L238.434 105.336ZM238.023 107.364C238.023 108.099 238.144 108.788 238.434 109.391L240.237 108.525C240.11 108.262 240.023 107.888 240.023 107.364H238.023ZM238.436 109.395C238.716 109.971 239.117 110.453 239.653 110.789L240.715 109.094C240.542 108.986 240.376 108.811 240.235 108.521L238.436 109.395ZM239.656 110.791C240.179 111.117 240.763 111.276 241.381 111.276V109.276C241.119 109.276 240.904 109.212 240.713 109.093L239.656 110.791ZM241.381 111.276C241.999 111.276 242.583 111.117 243.105 110.789L242.043 109.094C241.855 109.212 241.644 109.276 241.381 109.276V111.276ZM243.103 110.791C243.643 110.454 244.045 109.971 244.324 109.391L242.522 108.525C242.384 108.812 242.22 108.984 242.046 109.093L243.103 110.791ZM244.322 109.395C244.616 108.791 244.739 108.1 244.739 107.364H242.739C242.739 107.887 242.651 108.259 242.524 108.521L244.322 109.395Z" fill="black" mask="url(#path-1-outside-1_1_2)"></path>
<ellipse cx="150" cy="97.5" rx="2" ry="4.5" fill="#E80A0A"></ellipse>
<rect width="3" height="3" transform="translate(232 98)" fill="#B50B0B"></rect>
<circle cx="233.5" cy="99.5" r="1.5" fill="#CC2020"></circle>
<path d="M116 100C116 101.105 115.105 102 114 102C112.895 102 112 101.105 112 100C112 98.8954 112.895 98 114 98C115.105 98 116 98.8954 116 100Z" fill="#F51B1B"></path>
<path d="M18 89H202V97H18V89Z" fill="white"></path>
<path d="M12 72H220V83H12V72Z" fill="#F62B2B"></path>
<g filter="url(#filter0_dddd_1_2)">
<rect x="17" y="114" width="227" height="5" rx="2.5" fill="#88FFB0"></rect>
</g>
<path fill-rule="evenodd" clip-rule="evenodd" d="M138 57.8121C125 37 131 47.3121 128 42.8121L138 57.8121Z" fill="#F3B635"></path>
<path d="M118.5 93L122 94.5L123 99H130H136H145.5L146 93H151H156.5V98H165H176L170.5 89L163.5 67.5L163 65.5L162.5 64L161.5 62L160.5 60.5L158.5 59.8121H153.5L155 57.8121L165 53.5L167 45.8121L154 53L153.5 50.5L170.5 41.5L167 33.3121L161 27.5L156.5 25.5L151 27.5L149.5 35.3121L147.5 42.8121L147 38.3121L145.5 32C144 25.5 136 28.5 136 28.5C136 28.5 124.5 33 128 42.8121L134 51.8121L138 57.8121L126 59.8121L105 61L96 51.8121L88.5 45.8121L81.5 40L76.5 38.3121H72.5L68 40L65 45.8121V50L68 55L73.5 53.5L81.5 55L92.5 69V76L102 99H109L111 94.5L114.5 93H118.5Z" fill="url(#paint0_linear_1_2)"></path>
<path d="M138 57.8121L134 51.8121L128 42.8121M128 42.8121L138 57.8121L126 59.8121L105 61L96 51.8121L88.5 45.8121L81.5 40L76.5 38.3121H72.5L68 40L65 45.8121V50L68 55L73.5 53.5L81.5 55L92.5 69V76L102 99H109L111 94.5L114.5 93H118.5L122 94.5L123 99H130H136H145.5L146 93H151H156.5V98H165H176L170.5 89L163.5 67.5L163 65.5L162.5 64L161.5 62L160.5 60.5L158.5 59.8121H153.5L155 57.8121L165 53.5L167 45.8121L154 53L153.5 50.5L170.5 41.5L167 33.3121L161 27.5L156.5 25.5L151 27.5L149.5 35.3121L147.5 42.8121L147 38.3121L145.5 32C144 25.5 136 28.5 136 28.5C136 28.5 124.5 33 128 42.8121C131 47.3121 125 37 138 57.8121" stroke="#16EAD5"></path>
<circle cx="70.5" cy="43.5" r="1.5" fill="#88FFB0"></circle>
</g>
<defs>
<filter id="filter0_dddd_1_2" x="13" y="114" width="235" height="13" filterUnits="userSpaceOnUse" color-interpolation-filters="sRGB">
<feFlood flood-opacity="0" result="BackgroundImageFix"></feFlood>
<feColorMatrix in="SourceAlpha" type="matrix" values="0 0 0 0 0 0 0 0 0 0 0 0 0 0 0 0 0 0 127 0" result="hardAlpha"></feColorMatrix>
<feOffset dy="4"></feOffset>
<feGaussianBlur stdDeviation="2"></feGaussianBlur>
<feComposite in2="hardAlpha" operator="out"></feComposite>
<feColorMatrix type="matrix" values="0 0 0 0 0 0 0 0 0 0 0 0 0 0 0 0 0 0 0.25 0"></feColorMatrix>
<feBlend mode="normal" in2="BackgroundImageFix" result="effect1_dropShadow_1_2"></feBlend>
<feColorMatrix in="SourceAlpha" type="matrix" values="0 0 0 0 0 0 0 0 0 0 0 0 0 0 0 0 0 0 127 0" result="hardAlpha"></feColorMatrix>
<feOffset dy="4"></feOffset>
<feGaussianBlur stdDeviation="2"></feGaussianBlur>
<feComposite in2="hardAlpha" operator="out"></feComposite>
<feColorMatrix type="matrix" values="0 0 0 0 0 0 0 0 0 0 0 0 0 0 0 0 0 0 0.25 0"></feColorMatrix>
<feBlend mode="normal" in2="effect1_dropShadow_1_2" result="effect2_dropShadow_1_2"></feBlend>
<feColorMatrix in="SourceAlpha" type="matrix" values="0 0 0 0 0 0 0 0 0 0 0 0 0 0 0 0 0 0 127 0" result="hardAlpha"></feColorMatrix>
<feOffset dy="4"></feOffset>
<feGaussianBlur stdDeviation="2"></feGaussianBlur>
<feComposite in2="hardAlpha" operator="out"></feComposite>
<feColorMatrix type="matrix" values="0 0 0 0 0 0 0 0 0 0 0 0 0 0 0 0 0 0 0.25 0"></feColorMatrix>
<feBlend mode="normal" in2="effect2_dropShadow_1_2" result="effect3_dropShadow_1_2"></feBlend>
<feColorMatrix in="SourceAlpha" type="matrix" values="0 0 0 0 0 0 0 0 0 0 0 0 0 0 0 0 0 0 127 0" result="hardAlpha"></feColorMatrix>
<feOffset dy="4"></feOffset>
<feGaussianBlur stdDeviation="2"></feGaussianBlur>
<feComposite in2="hardAlpha" operator="out"></feComposite>
<feColorMatrix type="matrix" values="0 0 0 0 0 0 0 0 0 0 0 0 0 0 0 0 0 0 0.25 0"></feColorMatrix>
<feBlend mode="normal" in2="effect3_dropShadow_1_2" result="effect4_dropShadow_1_2"></feBlend>
<feBlend mode="normal" in="SourceGraphic" in2="effect4_dropShadow_1_2" result="shape"></feBlend>
</filter>
<linearGradient id="paint0_linear_1_2" x1="120.5" y1="25.5" x2="120.5" y2="99" gradientUnits="userSpaceOnUse">
<stop stop-color="#FFFC37"></stop>
<stop offset="0.665011" stop-color="#DD3E30"></stop>
<stop offset="0.945011" stop-color="#A45724"></stop>
<stop offset="1" stop-color="#999721"></stop>
</linearGradient>
<clipPath id="clip0_1_2">
<rect width="289" height="177" fill="white"></rect>
</clipPath>
</defs>
</svg>